<?xml version="1.0" encoding="utf-8"?>
<svg width="512px" height="512px" viewBox="0 0 512 512" version="1.1" xmlns:xlink="http://www.w3.org/1999/xlink" xmlns="http://www.w3.org/2000/svg">
  <defs>
    <path d="M0 0L512 0L512 512L0 512L0 0Z" id="path_1" />
    <clipPath id="mask_1">
      <use xlink:href="#path_1" />
    </clipPath>
  </defs>
  <g id="kitty-(1)">
    <path d="M0 0L512 0L512 512L0 512L0 0Z" id="Background" fill="none" fill-rule="evenodd" stroke="none" />
    <g clip-path="url(#mask_1)">
      <path d="M75.8937 119.958C51.2196 122.997 26.4247 118.847 4.87463 98.2305C-1.42636 92.2015 -1.64838 82.2055 4.38065 75.9035C10.4106 69.6005 20.4056 69.3805 26.7076 75.4095C44.7307 92.6535 67.7666 93.6505 108.852 78.9765C119.979 75.0025 122.711 67.6265 127.369 52.6495C132.845 35.0405 140.344 10.9235 173.431 0.707489C181.752 -1.86652 190.606 2.8035 193.178 11.1375C195.752 19.4705 191.082 28.3115 182.748 30.8845C166.326 35.9555 162.806 45.0515 157.525 62.0295C152.639 77.7435 145.946 99.2655 119.475 108.719C105.478 113.718 90.7076 118.133 75.8937 119.958L75.8937 119.958Z" transform="translate(277.60736 281.02853)" id="Shape" fill="#EDA751" fill-rule="evenodd" stroke="none" />
      <path d="M35.923 11.1375C33.35 2.80347 24.496 -1.86652 16.176 0.707489C9.922 2.63849 4.58499 5.06747 0 7.85449C0.859985 17.1625 4.453 29.1085 14.744 35.9425C17.583 33.9145 21.067 32.2515 25.494 30.8845C33.827 28.3115 38.497 19.4705 35.923 11.1375L35.923 11.1375Z" transform="translate(434.863 281.02753)" id="Shape" fill="#FCD79D" fill-rule="evenodd" stroke="none" />
      <g id="Group" transform="translate(107.20633 288.2313)">
        <path d="M25.3916 137.09C11.4376 137.09 0.124634 125.778 0.124634 111.824C0.124634 104.721 0.169632 96.2947 0.21463 87.3637C0.327637 65.8117 0.455627 41.3837 0.0106354 25.9957C-0.390366 12.0467 10.5906 0.413696 24.5396 0.0116882C38.4686 -0.409302 50.1206 10.5897 50.5236 24.5387C50.9916 40.7877 50.8616 65.6727 50.7466 87.6287C50.6996 96.4627 50.6566 104.799 50.6566 111.825C50.6576 125.778 39.3456 137.09 25.3916 137.09L25.3916 137.09Z" transform="translate(73.09203 86.679016)" id="Shape" fill="#EDA751" fill-rule="evenodd" stroke="none" />
        <path d="M25.4643 137.09C11.5103 137.09 0.198303 125.778 0.198303 111.824C0.198303 104.792 0.155304 96.4494 0.108307 87.6074C-0.00668335 65.6594 -0.135681 40.7834 0.330292 24.5404C0.7323 10.5904 12.4143 -0.404602 26.3133 0.0114136C40.2613 0.413422 51.2443 12.0454 50.8433 25.9944C50.4003 41.3784 50.5273 65.7984 50.6393 87.3444C50.6863 96.2824 50.7303 104.716 50.7303 111.825C50.7303 125.778 39.4193 137.09 25.4643 137.09L25.4643 137.09Z" transform="translate(159.67236 86.678314)" id="Shape" fill="#EDA751" fill-rule="evenodd" stroke="none" />
        <path d="M25.2537 145.012C21.5147 145.012 17.7177 144.179 14.1357 142.42C1.60967 136.269 -3.55833 121.13 2.59267 108.604C14.1227 85.1201 27.4407 32.6081 28.8947 21.8771C30.7697 8.04907 43.5017 -1.64291 57.3257 0.232086C71.1547 2.10608 80.8437 14.8351 78.9697 28.6621C76.8627 44.2151 62.2137 101.833 47.9517 130.876C43.5607 139.819 34.5867 145.012 25.2537 145.012L25.2537 145.012Z" transform="translate(0 0.00061035156)" id="Shape" fill="#EDA751" fill-rule="evenodd" stroke="none" />
        <path d="M53.9479 145.013C44.6139 145.013 35.6409 139.822 31.2499 130.877C16.9879 101.834 2.33887 44.2157 0.231873 28.6627C-1.64212 14.8357 8.04788 2.10672 21.8759 0.232727C35.6919 -1.64526 48.4319 8.04874 50.3069 21.8777C51.7599 32.6087 65.0779 85.1207 76.6079 108.605C82.7589 121.131 77.5909 136.27 65.0649 142.421C61.4829 144.18 57.6859 145.013 53.9479 145.013L53.9479 145.013Z" transform="translate(204.4188 0)" id="Shape" fill="#EDA751" fill-rule="evenodd" stroke="none" />
      </g>
      <g id="Group" transform="translate(119.155 288.2313)">
        <path d="M24.5397 0.0116882C10.5907 0.413696 -0.39035 12.0467 0.0106506 25.9957C0.33165 37.1227 0.353653 52.9767 0.298645 69.0527C15.5166 77.3437 32.5816 82.9577 50.7596 85.2067C50.8706 63.8607 50.9746 40.1947 50.5237 24.5387C50.1207 10.5897 38.4687 -0.409302 24.5397 0.0116882L24.5397 0.0116882Z" transform="translate(61.14334 86.67801)" id="Shape" fill="#A35F00" fill-opacity="0.2" fill-rule="evenodd" stroke="none" />
        <path d="M26.3137 0.0114136C12.4147 -0.404572 0.732697 10.5914 0.330689 24.5404C-0.119324 40.1954 -0.0153198 63.8634 0.0966797 85.2064C18.2747 82.9574 35.3387 77.3434 50.5567 69.0524C50.5017 52.9774 50.5237 37.1214 50.8437 25.9934C51.2447 12.0454 40.2617 0.412415 26.3137 0.0114136L26.3137 0.0114136Z" transform="translate(147.7233 86.67828)" id="Shape" fill="#A35F00" fill-opacity="0.2" fill-rule="evenodd" stroke="none" />
        <path d="M50.3069 21.8777C48.4319 8.04871 35.6919 -1.64529 21.8759 0.232727C8.04691 2.10672 -1.64209 14.8357 0.231903 28.6627C2.3389 44.2157 16.9879 101.834 31.2499 130.877C32.0419 132.489 32.9869 133.975 34.0509 135.335C48.9579 121.341 60.4499 104.139 67.2529 84.9407C58.8139 60.0637 51.3719 29.7437 50.3069 21.8777L50.3069 21.8777Z" transform="translate(192.4701 0)" id="Shape" fill="#A35F00" fill-opacity="0.2" fill-rule="evenodd" stroke="none" />
        <path d="M45.377 0.232086C31.553 -1.64291 18.821 8.04907 16.946 21.8771C15.881 29.7441 8.439 60.0631 0 84.9411C6.803 104.139 18.295 121.341 33.202 135.335C34.267 133.975 35.212 132.489 36.004 130.877C50.266 101.834 64.915 44.2161 67.022 28.6631C68.895 14.8351 59.205 2.10611 45.377 0.232086L45.377 0.232086Z" transform="translate(0 0.00061035156)" id="Shape" fill="#A35F00" fill-opacity="0.2" fill-rule="evenodd" stroke="none" />
      </g>
      <path d="M0 108.29C0 48.4831 52.1767 0 116.54 0C180.903 0 233.08 48.4831 233.08 108.29C233.08 168.097 180.903 216.58 116.54 216.58C52.1767 216.58 0 168.097 0 108.29Z" transform="translate(132.48001 224.35)" id="Ellipse" fill="#FCD690" fill-rule="evenodd" stroke="none" />
      <path d="M99.52 207.158C46.266 172.194 60.694 103.579 71.81 79.344L71.81 0C29.647 16.299 0 54.94 0 100.021C0.00100708 154.455 43.226 199.503 99.52 207.158L99.52 207.158Z" transform="translate(132.478 232.61801)" id="Shape" fill="#C17A00" fill-opacity="0.15" fill-rule="evenodd" stroke="none" />
      <path d="M137.589 155.014C160.393 135.879 175.618 103.758 143.453 56.2733C111.034 8.41427 62.7671 -3.58273 25.0861 0.856275C15.7961 1.95027 8.00107 8.49127 5.31007 17.4503C-5.60493 53.7893 -2.17193 103.405 39.3311 143.642C80.5081 183.564 114.785 174.148 137.589 155.014L137.589 155.014Z" transform="translate(40.506927 -0.0002746582)" id="Shape" fill="#EDA751" fill-rule="evenodd" stroke="none" />
      <path d="M3.78462 0C-5.16438 35.729 -0.104382 82.408 39.3216 120.632C75.0136 155.235 105.514 152.762 127.86 139.031C112.492 34.705 45.3586 7.041 3.78462 0L3.78462 0Z" transform="translate(40.51538 23.011002)" id="Shape" fill="#FF91AB" fill-rule="evenodd" stroke="none" />
      <path d="M24.272 155.014C1.46799 135.879 -13.757 103.758 18.408 56.2733C50.826 8.41427 99.093 -3.58273 136.775 0.856275C146.065 1.95027 153.86 8.49127 156.551 17.4503C167.466 53.7893 164.033 103.405 122.53 143.642C81.353 183.564 47.075 174.148 24.272 155.014L24.272 155.014Z" transform="translate(295.665 -0.0002746582)" id="Shape" fill="#EDA751" fill-rule="evenodd" stroke="none" />
      <path d="M124.075 0C133.024 35.729 127.964 82.408 88.538 120.632C52.847 155.235 22.346 152.762 0 139.031C15.368 34.705 82.5 7.041 124.075 0L124.075 0Z" transform="translate(329.65802 23.011002)" id="Shape" fill="#FF91AB" fill-rule="evenodd" stroke="none" />
      <path d="M396.806 164.255C396.806 254.97 307.978 294.703 198.403 294.703C88.828 294.703 0 254.971 0 164.255C0 73.539 88.828 0 198.403 0C307.978 0 396.806 73.54 396.806 164.255L396.806 164.255Z" transform="translate(50.613007 19.639008)" id="Shape" fill="#FFDC9C" fill-rule="evenodd" stroke="none" />
      <path d="M92.466 0C36.901 29.109 0 80.431 0 138.895C0 216.877 65.642 257.183 153.676 266.963C27.305 191.478 43.786 89.944 92.466 0L92.466 0Z" transform="translate(50.613007 44.998993)" id="Shape" fill="#C17A00" fill-opacity="0.15" fill-rule="evenodd" stroke="none" />
      <g id="Group" transform="translate(93.50752 166.01599)">
        <path d="M7.5 27.686C3.35699 27.686 0 24.328 0 20.186L0 7.5C0 3.358 3.35699 0 7.5 0C11.643 0 15 3.358 15 7.5L15 20.186C15 24.328 11.642 27.686 7.5 27.686L7.5 27.686Z" transform="translate(71.58647 0)" id="Shape" fill="#495059" fill-rule="evenodd" stroke="none" />
        <path d="M7.5 27.686C3.35699 27.686 0 24.328 0 20.186L0 7.5C0 3.358 3.35699 0 7.5 0C11.643 0 15 3.358 15 7.5L15 20.186C15 24.328 11.642 27.686 7.5 27.686L7.5 27.686Z" transform="translate(224.43147 0)" id="Shape" fill="#495059" fill-rule="evenodd" stroke="none" />
        <path d="M47.7981 24.179C45.7052 24.179 43.6232 23.308 42.1411 21.606C38.4831 17.407 33.2001 15 27.6481 15C22.0951 15 16.8121 17.408 13.1541 21.606C10.4331 24.729 5.69513 25.055 2.57314 22.333C-0.549866 19.612 -0.87587 14.875 1.84613 11.752C8.35413 4.284 17.7581 0 27.6491 0C37.5391 0 46.9431 4.284 53.4511 11.752C56.1731 14.875 55.8461 19.612 52.7231 22.333C51.3012 23.571 49.5462 24.179 47.7981 24.179L47.7981 24.179Z" transform="translate(127.86133 13.249023)" id="Shape" fill="#495059" fill-rule="evenodd" stroke="none" />
        <path d="M7.49648 18.0467C4.13647 18.0467 1.07848 15.7717 0.225479 12.3637C-0.778519 8.34567 1.66448 4.27368 5.68348 3.26868C15.5335 0.805679 39.0055 -0.950317 50.4425 0.561676C54.5485 1.10468 57.4385 4.87268 56.8955 8.97968C56.3525 13.0867 52.5725 15.9707 48.4775 15.4327C39.1285 14.1967 17.4955 15.7777 9.32048 17.8207C8.71048 17.9737 8.09848 18.0467 7.49648 18.0467L7.49648 18.0467Z" transform="translate(0 34.843338)" id="Shape" fill="#495059" fill-rule="evenodd" stroke="none" />
        <path d="M7.50651 33.3437C5.2065 33.3437 2.93751 32.2897 1.46651 30.2977C-0.993492 26.9657 -0.286491 22.2697 3.04651 19.8097C11.2165 13.7787 32.2515 3.21169 43.3985 0.25267C47.4085 -0.809326 51.5095 1.57367 52.5725 5.57767C53.6355 9.58167 51.2515 13.6877 47.2485 14.7507C38.1325 17.1707 18.7345 26.8737 11.9555 31.8787C10.6155 32.8667 9.0535 33.3437 7.50651 33.3437L7.50651 33.3437Z" transform="translate(11.430969 62.111343)" id="Shape" fill="#495059" fill-rule="evenodd" stroke="none" />
        <path d="M49.4646 18.0458C48.8616 18.0458 48.2506 17.9728 47.6406 17.8198C39.4646 15.7758 17.8346 14.1948 8.48355 15.4318C4.38956 15.9688 0.609558 13.0868 0.0655518 8.97882C-0.477448 4.87183 2.41254 1.10382 6.51855 0.560822C17.9536 -0.949173 41.4265 0.804825 51.2776 3.26782C55.2966 4.27182 57.7396 8.34383 56.7356 12.3628C55.8826 15.7708 52.8256 18.0458 49.4646 18.0458L49.4646 18.0458Z" transform="translate(254.05592 34.844193)" id="Shape" fill="#495059" fill-rule="evenodd" stroke="none" />
        <path d="M45.318 33.3446C43.77 33.3446 42.21 32.8676 40.87 31.8786C34.091 26.8736 14.693 17.1706 5.577 14.7506C1.57401 13.6876 -0.809998 9.5806 0.252991 5.57759C1.31598 1.57458 5.41898 -0.809402 9.427 0.252594C20.573 3.21159 41.609 13.7786 49.779 19.8096C53.112 22.2696 53.819 26.9656 51.359 30.2976C49.887 32.2906 47.618 33.3446 45.318 33.3446L45.318 33.3446Z" transform="translate(246.76149 62.110413)" id="Shape" fill="#495059" fill-rule="evenodd" stroke="none" />
      </g>
    </g>
  </g>
</svg>